<?xml version="1.0" encoding="UTF-8" standalone="no"?><svg xmlns="http://www.w3.org/2000/svg" xmlns:xlink="http://www.w3.org/1999/xlink" style="isolation:isolate" viewBox="0 0 1000 1000" width="1000pt" height="1000pt"><defs><clipPath id="_clipPath_BtKwSBTZY761MmoZknDYEQU4CStLKYYn"><rect width="1000" height="1000"/></clipPath></defs><g clip-path="url(#_clipPath_BtKwSBTZY761MmoZknDYEQU4CStLKYYn)"><rect width="1000" height="1000" style="fill:rgb(15,15,15)"/><path d=" M 272.309 468.701 C 272.309 305.059 359.685 172.201 467.309 172.201 C 574.932 172.201 662.309 305.059 662.309 468.701 C 662.309 632.344 574.932 765.201 467.309 765.201 C 359.685 765.201 272.309 632.344 272.309 468.701 Z  M 646.309 328.201 Q 728.886 343.325 763.828 317.201 Q 809.688 282.917 794.763 171.201 M 791.309 774.604 Q 811.401 682.467 780.309 645.084 Q 747.121 605.182 646.309 614.149 M 286.309 606.597 Q 206.848 594.196 173.225 619.201 Q 127.251 653.392 142.29 765.201 M 145.745 161.799 Q 125.304 254.122 156.745 291.318 Q 189.086 329.581 286.309 322.253" fill-rule="evenodd" fill="none" vector-effect="non-scaling-stroke" stroke-width="26" stroke="rgb(255,255,255)" stroke-linejoin="miter" stroke-linecap="square" stroke-miterlimit="3"/><path d="M 711.116 528.28 L 711.445 528.09 L 834.44 741.132 L 834.111 741.322 C 804.653 758.33 766.929 748.221 749.922 718.762 L 688.558 612.473 C 671.55 583.013 681.659 545.288 711.116 528.28 Z" style="stroke:none;fill:#7D7D7D;stroke-miterlimit:10;"/><rect x="775.146" y="604.855" width="16.601" height="35.721" transform="matrix(0.5,0.866,-0.866,0.5,931.01,-367.127)" fill="rgb(125,125,125)"/><circle vector-effect="non-scaling-stroke" cx="806.2406947023769" cy="610.1335073567489" r="12.067812970633213" fill="rgb(125,125,125)"/><rect x="705.309" y="630.044" width="49" height="208.157" transform="matrix(1,0,0,1,0,0)" fill="rgb(125,125,125)"/><path d=" M 771.277 555.121 C 800.21 543.233 834.43 553.338 851.892 580.605 C 871.536 611.279 862.579 652.131 831.906 671.778" fill="none" vector-effect="non-scaling-stroke" stroke-width="17" stroke="rgb(125,125,125)" stroke-linejoin="miter" stroke-linecap="square" stroke-miterlimit="3"/></g></svg>