<?xml version="1.0" encoding="UTF-8" standalone="no"?><svg xmlns="http://www.w3.org/2000/svg" xmlns:xlink="http://www.w3.org/1999/xlink" style="isolation:isolate" viewBox="0 0 1000 1000" width="1000pt" height="1000pt"><defs><clipPath id="_clipPath_tjlkLdJeDasItXdwTqu89H4clFKP3aNu"><rect width="1000" height="1000"/></clipPath></defs><g clip-path="url(#_clipPath_tjlkLdJeDasItXdwTqu89H4clFKP3aNu)"><rect width="1000" height="1000" style="fill:rgb(15,15,15)"/><path d=" M 303.865 500.5 C 303.865 336.857 391.242 204 498.865 204 C 606.488 204 693.865 336.857 693.865 500.5 C 693.865 664.143 606.488 797 498.865 797 C 391.242 797 303.865 664.143 303.865 500.5 Z  M 677.865 360 Q 760.442 375.123 795.385 349 Q 841.244 314.715 826.32 203 M 822.865 806.403 Q 842.957 714.265 811.865 676.883 Q 778.677 636.981 677.865 645.948 M 317.865 638.395 Q 238.405 625.995 204.781 651 Q 158.807 685.19 173.846 797 M 177.301 193.597 Q 156.861 285.921 188.301 323.117 Q 220.643 361.379 317.865 354.052" fill-rule="evenodd" fill="none" vector-effect="non-scaling-stroke" stroke-width="26" stroke="rgb(255,255,255)" stroke-linejoin="miter" stroke-linecap="square" stroke-miterlimit="3"/></g></svg>