<?xml version="1.0" encoding="UTF-8" standalone="no"?><svg xmlns="http://www.w3.org/2000/svg" xmlns:xlink="http://www.w3.org/1999/xlink" style="isolation:isolate" viewBox="0 0 1000 1000" width="1000pt" height="1000pt"><defs><clipPath id="_clipPath_083phPnmkctk8OzMEzNSN5x4mnSYse27"><rect width="1000" height="1000"/></clipPath></defs><g clip-path="url(#_clipPath_083phPnmkctk8OzMEzNSN5x4mnSYse27)"><rect width="1000" height="1000" style="fill:rgb(15,15,15)"/><path d=" M 696.877 531.673 L 408.868 697.955 L 120.859 864.237 C 90.581 881.718 66 867.526 66 832.564 L 66 500 L 66 167.436 C 66 132.474 90.581 118.282 120.859 135.763 L 408.868 302.045 L 696.877 468.327 C 727.155 485.808 727.155 514.192 696.877 531.673 Z " fill="rgb(235,235,235)"/><path d="M 611.808 544.08 L 612.137 543.89 L 735.14 756.932 L 734.811 757.122 C 705.351 774.13 667.625 764.021 650.616 734.562 L 589.248 628.273 C 572.24 598.813 582.349 561.088 611.808 544.08 Z" style="stroke:none;fill:#7D7D7D;stroke-miterlimit:10;"/><rect x="675.837" y="620.653" width="16.601" height="35.721" transform="matrix(0.5,0.866,-0.866,0.5,895.038,-273.224)" fill="rgb(125,125,125)"/><circle vector-effect="non-scaling-stroke" cx="706.9321870293668" cy="625.9321870293668" r="12.067812970633213" fill="rgb(125,125,125)"/><rect x="606" y="645.843" width="49" height="208.157" transform="matrix(1,0,0,1,0,0)" fill="rgb(125,125,125)"/><path d=" M 671.969 570.919 C 700.902 559.031 735.121 569.137 752.583 596.404 C 772.227 627.078 763.27 667.93 732.597 687.577" fill="none" vector-effect="non-scaling-stroke" stroke-width="17" stroke="rgb(125,125,125)" stroke-linejoin="miter" stroke-linecap="square" stroke-miterlimit="3"/></g></svg>